<svg xmlns="http://www.w3.org/2000/svg" width="27.109" height="25.492" viewBox="0 0 27.109 25.492">
  <g id="booking" transform="translate(0.2 -15.3)">
    <path id="Path_19202" data-name="Path 19202" d="M21.216,15.5H5.492a5.492,5.492,0,1,0,0,10.985h4v4.437l-.2-.164a2.542,2.542,0,0,0-3.367.147,2.2,2.2,0,0,0,.143,3.27l3.419,2.869v2.765a.783.783,0,0,0,.782.782h9.39a.783.783,0,0,0,.782-.782V31.016a2.351,2.351,0,0,0-2.057-2.329l-4.2-.524V26.485h7.03a5.492,5.492,0,0,0,0-10.985ZM11.057,39.027V37.462h7.825v1.565ZM18.2,30.24a.784.784,0,0,1,.686.776V35.9H10.559l-3.48-2.92a.634.634,0,0,1-.042-.964.972.972,0,0,1,1.254-.055L9.771,33.2a.783.783,0,0,0,1.285-.6V22.594a.782.782,0,1,1,1.565,0v6.26a.783.783,0,0,0,.686.776Zm3.021-5.32h-7.03V22.594a2.347,2.347,0,1,0-4.695,0V24.92h-4a3.927,3.927,0,1,1,0-7.855H21.216a3.927,3.927,0,0,1,0,7.855Z" stroke="#fff" stroke-width="0.4"/>
    <path id="Path_19203" data-name="Path 19203" d="M305.824,75.729l-2.577,2.577-1.012-1.012a.782.782,0,0,0-1.107,1.107l1.565,1.565a.782.782,0,0,0,1.107,0l3.13-3.13a.782.782,0,0,0-1.107-1.107Z" transform="translate(-285.203 -56.87)" stroke="#fff" stroke-width="0.4"/>
  </g>
</svg>
