<svg xmlns="http://www.w3.org/2000/svg" width="19.984" height="20.73" viewBox="0 0 19.984 20.73">
  <g id="event" transform="translate(-7.804)">
    <g id="Group_18231" data-name="Group 18231" transform="translate(7.804)">
      <g id="Group_18230" data-name="Group 18230" transform="translate(0)">
        <path id="Path_19106" data-name="Path 19106" d="M26.015,2.249q-.064,0-.127,0h-1.6V.874A.971.971,0,0,0,23.215,0H21.742a.86.86,0,0,0-.949.874V2.248H14.8V.874A.86.86,0,0,0,13.849,0H12.376A.971.971,0,0,0,11.3.874V2.248H9.7a1.848,1.848,0,0,0-1.9,1.8q0,.064,0,.127V18.607A2.032,2.032,0,0,0,9.7,20.73H25.888a2.032,2.032,0,0,0,1.9-2.123V4.171A1.848,1.848,0,0,0,26.015,2.249ZM21.742,1H23.29V3.746H21.742ZM12.376,1H13.8V3.746H12.376V1ZM26.787,18.607a1.038,1.038,0,0,1-.9,1.124H9.7a1.038,1.038,0,0,1-.9-1.124V7.992H26.787V18.607Zm0-14.436V6.993H8.8V4.171a.849.849,0,0,1,.9-.924h1.6V3.8a1.028,1.028,0,0,0,1.074.949h1.474a.924.924,0,0,0,.949-.9q0-.025,0-.051v-.55h5.994V3.8a.924.924,0,0,0,.9.949h1.524A1.028,1.028,0,0,0,24.289,3.8V3.247h1.6a.849.849,0,0,1,.9.924Z" transform="translate(-7.804)"/>
        <path id="Path_19812" data-name="Path 19812" d="M48.939,12.342,52.9,8.379a.922.922,0,1,1,1.3,1.3L49.591,14.3a.922.922,0,0,1-1.3,0L45.71,11.721a.922.922,0,0,1,1.3-1.3Z" transform="translate(-40 2.256)" stroke="#ebebeb" stroke-width="0.5"/>
      </g>
    </g>
  </g>
</svg>
