<svg xmlns="http://www.w3.org/2000/svg" width="23" height="23" viewBox="0 0 23 23">
  <g id="Reply" transform="translate(-64 -39)">
    <rect id="Rectangle_1583" data-name="Rectangle 1583" width="23" height="23" rx="5" transform="translate(64 39)" fill="#107ae5"/>
    <g id="reply_1_" data-name="reply (1)" transform="translate(68 16.583)">
      <path id="Path_21076" data-name="Path 21076" d="M12.368,32.559q-1.152-2.866-6.223-2.866H4.552V27.872a.453.453,0,0,0-.775-.32L.135,31.194a.447.447,0,0,0,0,.64l3.641,3.641a.455.455,0,0,0,.775-.32V33.334H6.145q.7,0,1.248.043a9,9,0,0,1,1.1.153,4.065,4.065,0,0,1,.946.3,3.349,3.349,0,0,1,.75.494,2.478,2.478,0,0,1,.569.718,3.871,3.871,0,0,1,.345.985,6.058,6.058,0,0,1,.124,1.287q0,.391-.036.875a1.457,1.457,0,0,1-.018.167,1.464,1.464,0,0,0-.018.188.265.265,0,0,0,.06.178.208.208,0,0,0,.167.071.243.243,0,0,0,.2-.121.813.813,0,0,0,.092-.157q.043-.092.1-.213l.075-.171a8.539,8.539,0,0,0,.9-3.207A6.475,6.475,0,0,0,12.368,32.559Z" transform="translate(1.098 0.98)" fill="#fff"/>
    </g>
  </g>
</svg>
