<svg xmlns="http://www.w3.org/2000/svg" width="61.429" height="47.991" viewBox="0 0 61.429 47.991">
  <g id="Subscription" transform="translate(0)">
    <path id="Path_15401" data-name="Path 15401" d="M61.427,1.139A1.2,1.2,0,0,0,60.229,0H1.2A1.2,1.2,0,0,0,0,1.139C0,1.159,0,1.18,0,1.2V46.791a1.2,1.2,0,0,0,1.2,1.2H60.229a1.2,1.2,0,0,0,1.2-1.2V1.2c0-.021,0-.041,0-.061ZM2.4,2.386h56.63V7.921H2.4Zm56.63,43.2H2.4V10.321h56.63Zm0,0" transform="translate(0)" fill="#75b02e"/>
    <path id="Path_15402" data-name="Path 15402" d="M91.8,36.041H82.2a1.2,1.2,0,0,1,0-2.4h9.6a1.2,1.2,0,0,1,0,2.4Zm0,0" transform="translate(-71.282 -29.604)" fill="#75b02e"/>
    <path id="Path_15403" data-name="Path 15403" d="M42.216,36.041a1.2,1.2,0,0,1,0-2.4h0a1.2,1.2,0,0,1,0,2.4Zm0,0" transform="translate(-36.095 -29.604)" fill="#75b02e"/>
    <path id="Path_15404" data-name="Path 15404" d="M70.934,242.479H60.856a1.2,1.2,0,0,1,0-2.4H70.934a1.2,1.2,0,0,1,0,2.4Zm0,0" transform="translate(-52.499 -211.274)" fill="#75b02e"/>
    <path id="Path_15405" data-name="Path 15405" d="M70.934,282.678H60.856a1.2,1.2,0,0,1,0-2.4H70.934a1.2,1.2,0,0,1,0,2.4Zm0,0" transform="translate(-52.499 -246.65)" fill="#75b02e"/>
    <path id="Path_15406" data-name="Path 15406" d="M70.934,322.876H60.856a1.2,1.2,0,0,1,0-2.4H70.934a1.2,1.2,0,0,1,0,2.4Zm0,0" transform="translate(-52.499 -282.026)" fill="#75b02e"/>
    <path id="Path_15407" data-name="Path 15407" d="M69.415,137.115a5.761,5.761,0,1,1,5.759-5.76A5.766,5.766,0,0,1,69.415,137.115Zm0-9.121a3.36,3.36,0,1,0,3.359,3.36A3.364,3.364,0,0,0,69.415,127.994Zm0,0" transform="translate(-56.019 -110.525)" fill="#75b02e"/>
    <path id="Path_15408" data-name="Path 15408" d="M215.278,242.479H205.2a1.2,1.2,0,0,1,0-2.4h10.078a1.2,1.2,0,0,1,0,2.4Zm0,0" transform="translate(-179.525 -211.274)" fill="#75b02e"/>
    <path id="Path_15409" data-name="Path 15409" d="M215.278,282.678H205.2a1.2,1.2,0,0,1,0-2.4h10.078a1.2,1.2,0,0,1,0,2.4Zm0,0" transform="translate(-179.525 -246.65)" fill="#75b02e"/>
    <path id="Path_15410" data-name="Path 15410" d="M215.278,322.876H205.2a1.2,1.2,0,0,1,0-2.4h10.078a1.2,1.2,0,0,1,0,2.4Zm0,0" transform="translate(-179.525 -282.026)" fill="#75b02e"/>
    <path id="Path_15411" data-name="Path 15411" d="M213.759,137.115a5.761,5.761,0,1,1,5.759-5.76A5.766,5.766,0,0,1,213.759,137.115Zm0-9.121a3.36,3.36,0,1,0,3.359,3.36A3.364,3.364,0,0,0,213.759,127.994Zm0,0" transform="translate(-183.045 -110.525)" fill="#75b02e"/>
    <path id="Path_15412" data-name="Path 15412" d="M359.708,242.479H349.63a1.2,1.2,0,0,1,0-2.4h10.078a1.2,1.2,0,0,1,0,2.4Zm0,0" transform="translate(-306.626 -211.274)" fill="#75b02e"/>
    <path id="Path_15413" data-name="Path 15413" d="M359.708,282.678H349.63a1.2,1.2,0,0,1,0-2.4h10.078a1.2,1.2,0,0,1,0,2.4Zm0,0" transform="translate(-306.626 -246.65)" fill="#75b02e"/>
    <path id="Path_15414" data-name="Path 15414" d="M359.708,322.876H349.63a1.2,1.2,0,0,1,0-2.4h10.078a1.2,1.2,0,0,1,0,2.4Zm0,0" transform="translate(-306.626 -282.026)" fill="#75b02e"/>
    <path id="Path_15415" data-name="Path 15415" d="M358.189,137.115a5.761,5.761,0,1,1,5.759-5.76A5.766,5.766,0,0,1,358.189,137.115Zm0-9.121a3.36,3.36,0,1,0,3.359,3.36A3.364,3.364,0,0,0,358.189,127.994Zm0,0" transform="translate(-310.146 -110.525)" fill="#75b02e"/>
  </g>
</svg>
